<svg width="43" height="42" viewBox="0 0 43 42" fill="none" xmlns="http://www.w3.org/2000/svg">
<path fill-rule="evenodd" clip-rule="evenodd" d="M36.248 10.5C37.1807 10.5 37.9367 11.256 37.9367 12.187V21H34.9355V15.6222L22.5017 28.056C22.3618 28.196 22.1957 28.3071 22.0128 28.3829C21.8299 28.4586 21.6339 28.4976 21.436 28.4976C21.2381 28.4976 21.042 28.4586 20.8592 28.3829C20.6763 28.3071 20.5102 28.196 20.3702 28.056L15.4352 23.121L7.12275 31.437L5 29.316L14.3712 19.9465C14.5112 19.8065 14.6773 19.6954 14.8602 19.6196C15.043 19.5439 15.2391 19.5049 15.437 19.5049C15.6349 19.5049 15.8309 19.5439 16.0138 19.6196C16.1967 19.6954 16.3628 19.8065 16.5027 19.9465L21.4377 24.8797L32.8162 13.4995H27.4367V10.5H36.248ZM7.93825 15.001H22.9375V11.9997H7.93825V15.001Z" fill="#163300"/>
</svg>
