<svg width="24" height="24" viewBox="0 0 24 24" fill="none" xmlns="http://www.w3.org/2000/svg">
<path fill-rule="evenodd" clip-rule="evenodd" d="M4.71387 2.574C4.71387 2.098 5.09987 1.713 5.57587 1.713H19.2799C19.7559 1.713 20.1419 2.099 20.1419 2.574V21.423C20.1419 21.5362 20.1196 21.6482 20.0762 21.7527C20.0329 21.8572 19.9694 21.9522 19.8893 22.0322C19.8093 22.1121 19.7142 22.1755 19.6097 22.2187C19.5051 22.262 19.393 22.2841 19.2799 22.284H5.57587C5.46271 22.2841 5.35065 22.262 5.24607 22.2187C5.14149 22.1755 5.04646 22.1121 4.9664 22.0322C4.88634 21.9522 4.82283 21.8572 4.7795 21.7527C4.73617 21.6482 4.71387 21.5362 4.71387 21.423V2.574ZM6.42887 3.427V20.57H18.4289V3.427H6.42887ZM8.56987 7.284H16.2849V5.57H8.56987V7.284ZM16.2849 10.713H8.56987V8.999H16.2849V10.713ZM16.2849 14.142H8.56987V12.427H16.2849V14.142ZM13.7129 17.57H16.2849V15.856H13.7129V17.57Z" fill="black"/>
</svg>
