<svg width="24" height="24" viewBox="0 0 24 24" fill="none" xmlns="http://www.w3.org/2000/svg">
<path fill-rule="evenodd" clip-rule="evenodd" d="M21.4289 3H2.57187C2.34465 3.00053 2.12687 3.09096 1.9661 3.25153C1.80534 3.41211 1.71466 3.62978 1.71387 3.857V16.714C1.71466 16.941 1.8052 17.1586 1.96575 17.3191C2.1263 17.4797 2.34382 17.5702 2.57087 17.571H6.85687V20.143C6.85687 20.443 7.02887 20.743 7.32887 20.914C7.45687 21 7.58587 21 7.71387 21C7.88034 21.0034 8.04425 20.9586 8.18587 20.871L13.1139 17.571H21.4289C21.6559 17.5702 21.8734 17.4797 22.034 17.3191C22.1945 17.1586 22.2851 16.941 22.2859 16.714V3.857C22.2851 3.62995 22.1945 3.41243 22.034 3.25188C21.8734 3.09134 21.6559 3.00079 21.4289 3ZM20.5719 15.857H12.8569C12.6907 15.8538 12.5272 15.8986 12.3859 15.986L8.57187 18.557V16.714C8.57107 16.4868 8.48039 16.2691 8.31963 16.1085C8.15887 15.948 7.94109 15.8575 7.71387 15.857H3.42987V4.714H20.5699V15.857H20.5719ZM18.8569 7.283H5.14287V8.997H18.8569V7.283ZM5.14287 11.573H18.8569V13.287H5.14287V11.572V11.573Z" fill="black"/>
</svg>
