<svg width="42" height="42" viewBox="0 0 42 42" fill="none" xmlns="http://www.w3.org/2000/svg">
<path d="M30.0756 21.525C31.2203 20.6899 32.1504 19.595 32.7893 18.3303C33.4282 17.0655 33.7576 15.6672 33.7506 14.2502C33.7506 9.2995 29.6976 5.25 24.7503 5.25C23.1705 5.25339 21.6192 5.67055 20.2507 6.45993C18.8822 7.24932 17.7444 8.3834 16.9506 9.74925C12.1503 9.89975 8.24956 13.8757 8.24956 18.7495C8.24956 21.7507 9.67581 24.3758 11.9246 26.0243C9.91686 27.0046 8.22592 28.5307 7.04547 30.4277C5.86501 32.3246 5.24278 34.5157 5.25006 36.75H8.24956C8.24956 33.2255 10.3496 30.1508 13.2756 28.6493C14.4008 28.1243 15.5996 27.7498 16.9506 27.7498H17.2498C22.2006 27.7498 26.2501 31.7992 26.2501 36.75H29.2496C29.2496 32.025 26.5493 27.9755 22.5751 26.0243C23.569 25.2657 24.4089 24.3242 25.0496 23.2505C29.8498 23.3993 33.7506 27.3753 33.7506 32.2508H36.7501C36.7501 27.5258 34.0498 23.4745 30.0756 21.525ZM15.5996 24.5245C13.1251 23.7755 11.2526 21.525 11.2526 18.7495C11.2526 15.9005 13.2021 13.5747 15.8271 12.8992C16.2768 12.8257 16.7266 12.7505 17.2516 12.7505C17.8518 12.7505 18.3768 12.8257 18.9018 12.9745C21.4516 13.7253 23.2523 15.9757 23.2523 18.7495C23.2523 19.1992 23.1771 19.5755 23.1018 20.0252C22.5016 22.7255 20.1023 24.7502 17.2516 24.7502C16.6513 24.7502 16.1263 24.675 15.6013 24.5245H15.5996ZM26.1748 20.1005C26.2501 19.6508 26.2501 19.1992 26.2501 18.7495C26.2501 14.8505 23.7756 11.55 20.2493 10.2742C20.8092 9.63221 21.5014 9.11884 22.2783 8.76936C23.0552 8.41987 23.8985 8.24253 24.7503 8.2495C26.3401 8.25458 27.8633 8.88848 28.9873 10.0128C30.1112 11.1371 30.7447 12.6605 30.7493 14.2502C30.7493 17.0992 28.7998 19.425 26.1748 20.1005Z" fill="#163300"/>
</svg>
