<svg width="24" height="24" viewBox="0 0 24 24" fill="none" xmlns="http://www.w3.org/2000/svg">
<path fill-rule="evenodd" clip-rule="evenodd" d="M15.6 1.97001L20.743 7.11301C20.8234 7.19102 20.8876 7.28423 20.9317 7.38723C20.9758 7.49023 20.999 7.60097 21 7.71301V17.999C20.9992 18.2261 20.9087 18.4436 20.7481 18.6041C20.5876 18.7647 20.37 18.8552 20.143 18.856H7.286C7.05895 18.8552 6.84143 18.7647 6.68088 18.6041C6.52034 18.4436 6.42979 18.2261 6.429 17.999V2.57001C6.42979 2.34297 6.52034 2.12544 6.68088 1.9649C6.84143 1.80435 7.05895 1.7138 7.286 1.71301H15C15.214 1.71301 15.429 1.79901 15.6 1.97001ZM15 7.71301H18.943L15 3.77001V7.71301ZM8.143 3.42701V17.142H19.286V9.42701H14.143C13.916 9.42622 13.6984 9.33568 13.5379 9.17513C13.3773 9.01458 13.2868 8.79706 13.286 8.57001V3.42701H8.143ZM3 5.14101H4.714V20.569H15.857V22.284H3.857C3.62961 22.2832 3.41178 22.1924 3.25118 22.0314C3.09057 21.8704 3.00026 21.6524 3 21.425V5.14101Z" fill="#163300"/>
</svg>
