<svg width="24" height="24" viewBox="0 0 24 24" fill="none" xmlns="http://www.w3.org/2000/svg">
<path fill-rule="evenodd" clip-rule="evenodd" d="M16.6288 11.999L15.4288 10.799L18.5138 7.713H2.57178V5.999H18.5138L15.4298 2.913L16.6298 1.713L21.1728 6.256C21.254 6.33342 21.3186 6.42651 21.3628 6.52964C21.407 6.63278 21.4297 6.7438 21.4297 6.856C21.4297 6.96819 21.407 7.07922 21.3628 7.18235C21.3186 7.28548 21.254 7.37858 21.1728 7.456L16.6288 11.999ZM7.37178 11.998L8.57178 13.198L5.48578 16.284H21.4288V17.998H5.48578L8.57178 21.084L7.37178 22.284L2.82878 17.741C2.74758 17.6636 2.68293 17.5705 2.63877 17.4673C2.5946 17.3642 2.57183 17.2532 2.57183 17.141C2.57183 17.0288 2.5946 16.9178 2.63877 16.8146C2.68293 16.7115 2.74758 16.6184 2.82878 16.541L7.37178 11.998Z" fill="black"/>
</svg>
