<svg width="16" height="16" viewBox="0 0 16 16" fill="none" xmlns="http://www.w3.org/2000/svg">
<path d="M14.7426 6.486L13.7139 6C13.2155 7.11418 12.4055 8.0604 11.3815 8.72459C10.3574 9.38879 9.16314 9.74258 7.94258 9.74333C6.72201 9.74258 5.52772 9.38879 4.5037 8.72459C3.47967 8.0604 2.66963 7.11418 2.17124 6L1.14258 6.486C1.532 7.32375 2.0639 8.08753 2.71458 8.74333L1.62791 10.0573L2.51458 10.8L3.59991 9.48667C3.99991 9.77267 4.42858 10.0293 4.85724 10.2293L4.28591 11.8293L5.37125 12.2293L5.94258 10.6293C6.40663 10.7726 6.88636 10.859 7.37125 10.8867V12.6H8.51391V10.8867C8.9988 10.859 9.47853 10.7726 9.94258 10.6293L10.5139 12.2293L11.6006 11.8293L11.0286 10.2293C11.4859 10.0293 11.8859 9.77267 12.2859 9.48667L13.3712 10.8007L14.2572 10.058L13.1712 8.744C13.8286 8.08667 14.3712 7.34333 14.7426 6.486Z" fill="black"/>
</svg>
