<svg width="16" height="16" viewBox="0 0 16 16" fill="none" xmlns="http://www.w3.org/2000/svg">
<path fill-rule="evenodd" clip-rule="evenodd" d="M1.71392 8.858L2.18926 9.17533L2.19192 9.17134C2.21895 9.131 2.24742 9.09164 2.27726 9.05334C2.34059 8.96934 2.43726 8.84534 2.56659 8.69534C2.91445 8.2926 3.2985 7.92261 3.71392 7.59C4.72126 6.784 6.17059 6.00067 7.99992 6.00067C9.82926 6.00067 11.2786 6.784 12.2859 7.59C12.7011 7.92264 13.0849 8.29263 13.4326 8.69534C13.5646 8.84843 13.6898 9.00725 13.8079 9.17134L13.8106 9.17533L14.2859 8.858C14.7613 8.54133 14.7613 8.54067 14.7606 8.54067L14.7599 8.53934L14.7573 8.53534L14.7506 8.52534C14.7143 8.47184 14.6765 8.41937 14.6373 8.368C14.5593 8.26467 14.4466 8.12133 14.2993 7.94933C13.9052 7.4931 13.47 7.07401 12.9993 6.69733C11.8653 5.78933 10.1713 4.858 7.99992 4.858C5.82926 4.858 4.13526 5.78933 2.99992 6.698C2.52946 7.07451 2.09453 7.49337 1.70059 7.94933C1.5415 8.1344 1.3909 8.3266 1.24926 8.52534L1.24259 8.53534L1.23992 8.53867V8.54L1.23926 8.54067L1.71392 8.858ZM7.99992 10.572C8.22501 10.572 8.44789 10.5277 8.65584 10.4415C8.8638 10.3554 9.05275 10.2291 9.21191 10.07C9.37107 9.91082 9.49732 9.72187 9.58345 9.51392C9.66959 9.30597 9.71392 9.08309 9.71392 8.858C9.71392 8.63292 9.66959 8.41003 9.58345 8.20208C9.49732 7.99413 9.37107 7.80518 9.21191 7.64602C9.05275 7.48686 8.8638 7.36061 8.65584 7.27447C8.44789 7.18834 8.22501 7.144 7.99992 7.144C7.54526 7.144 7.10921 7.32462 6.78771 7.64612C6.46621 7.96762 6.28559 8.40367 6.28559 8.85834C6.28559 9.313 6.46621 9.74905 6.78771 10.0706C7.10921 10.3921 7.54526 10.5727 7.99992 10.5727V10.572Z" fill="black"/>
</svg>
