<svg width="24" height="24" viewBox="0 0 24 24" fill="none" xmlns="http://www.w3.org/2000/svg">
<path fill-rule="evenodd" clip-rule="evenodd" d="M4.2862 11.144H10.2862C10.5132 11.1432 10.7308 11.0527 10.8913 10.8921C11.0519 10.7316 11.1424 10.514 11.1432 10.287V4.287C11.1424 4.05995 11.0519 3.84243 10.8913 3.68188C10.7308 3.52134 10.5132 3.43079 10.2862 3.43H4.2862C4.05915 3.43079 3.84163 3.52134 3.68108 3.68188C3.52053 3.84243 3.42999 4.05995 3.4292 4.287V10.287C3.42999 10.514 3.52053 10.7316 3.68108 10.8921C3.84163 11.0527 4.05915 11.1432 4.2862 11.144ZM9.4292 9.43H5.1432V5.144H9.4292V9.43ZM13.7142 11.144H19.7142C19.9414 11.1435 20.1592 11.053 20.32 10.8925C20.4807 10.7319 20.5714 10.5142 20.5722 10.287V4.287C20.5714 4.05995 20.4809 3.84243 20.3203 3.68188C20.1598 3.52134 19.9422 3.43079 19.7152 3.43H13.7152C13.488 3.43053 13.2702 3.52096 13.1094 3.68153C12.9487 3.84211 12.858 4.05978 12.8572 4.287V10.287C12.858 10.514 12.9485 10.7316 13.1091 10.8921C13.2696 11.0527 13.4872 11.1432 13.7142 11.144ZM18.8572 9.43H14.5722V5.144H18.8572V9.43ZM10.2862 20.572H4.2862C4.05915 20.5712 3.84163 20.4807 3.68108 20.3201C3.52053 20.1596 3.42999 19.942 3.4292 19.715V13.715C3.42973 13.4878 3.52015 13.27 3.68073 13.1092C3.84131 12.9485 4.05898 12.8578 4.2862 12.857H10.2862C10.5134 12.8578 10.7311 12.9485 10.8917 13.1092C11.0522 13.27 11.1427 13.4878 11.1432 13.715V19.715C11.1424 19.942 11.0519 20.1596 10.8913 20.3201C10.7308 20.4807 10.5132 20.5712 10.2862 20.572ZM5.1432 18.857H9.4292V14.572H5.1432V18.857ZM13.7152 20.572H19.7152C19.9422 20.5712 20.1598 20.4807 20.3203 20.3201C20.4809 20.1596 20.5714 19.942 20.5722 19.715V13.715C20.5717 13.4878 20.4812 13.27 20.3207 13.1092C20.1601 12.9485 19.9424 12.8578 19.7152 12.857H13.7152C13.4878 12.8575 13.2699 12.9481 13.1091 13.1089C12.9483 13.2697 12.8577 13.4876 12.8572 13.715V19.715C12.858 19.9422 12.9487 20.1599 13.1094 20.3205C13.2702 20.481 13.488 20.5715 13.7152 20.572ZM18.8572 18.857H14.5722V14.572H18.8572V18.857Z" fill="black"/>
</svg>
