<svg width="24" height="24" viewBox="0 0 24 24" fill="none" xmlns="http://www.w3.org/2000/svg">
<path d="M11.9999 21C11.7859 21 11.5289 20.914 11.3999 20.743C10.6709 20.014 9.72887 19.2 8.74287 18.343C5.61387 15.686 1.71387 12.343 1.71387 8.143C1.71387 5.1 3.81387 3 6.85687 3C9.25687 3 10.7999 4.243 11.9999 5.829C13.1999 4.286 14.7429 3 17.1429 3C20.1859 3 22.2859 5.1 22.2859 8.143C22.2859 12.343 18.3859 15.686 15.2569 18.343C14.2709 19.2 13.3289 19.971 12.5999 20.743C12.4719 20.914 12.2139 21 11.9999 21ZM6.85687 4.714C4.75687 4.714 3.42887 6.043 3.42887 8.143C3.42887 11.571 6.85687 14.486 9.85687 17.057C10.6289 17.7 11.3569 18.343 11.9999 18.943C12.6429 18.343 13.3709 17.7 14.1429 17.057C17.1429 14.486 20.5709 11.571 20.5709 8.143C20.5709 6.043 19.2429 4.714 17.1429 4.714C15.1289 4.714 13.9719 5.871 12.7289 7.757C12.6507 7.87847 12.5425 7.97779 12.4149 8.04539C12.2872 8.11299 12.1443 8.1466 11.9999 8.143C11.8554 8.1466 11.7125 8.11299 11.5849 8.04539C11.4572 7.97779 11.3491 7.87847 11.2709 7.757C10.0289 5.871 8.87087 4.714 6.85687 4.714Z" fill="black"/>
</svg>
