<svg width="105" height="34" viewBox="0 0 105 34" fill="none" xmlns="http://www.w3.org/2000/svg">
<rect y="5" width="24" height="24" rx="12" fill="#163300"/>
<path d="M12.4121 9.01074C16.6388 9.22523 19.9999 12.7201 20 17L19.9893 17.4121C19.7748 21.6389 16.2801 25 12 25L11.5879 24.9893C7.49778 24.7816 4.2183 21.5023 4.01074 17.4121L4 17C4.00015 12.5819 7.58194 9.00015 12 9L12.4121 9.01074ZM12 10.5C8.41037 10.5002 5.50015 13.4104 5.5 17C5.5 20.5898 8.41028 23.4998 12 23.5C15.5899 23.5 18.5 20.5899 18.5 17C18.4998 13.4103 15.5898 10.5 12 10.5ZM12.1338 11.667C13.6909 11.6672 15.0923 12.3351 16.0674 13.3994L15.1338 14.334C15.1804 14.474 15.2368 14.6468 15.2969 14.834C14.6059 13.8275 13.4467 13.1672 12.1338 13.167C10.5172 13.1671 9.13467 14.1682 8.57129 15.584H14.1338V17.084H8.30273C8.30394 17.1398 8.306 17.1957 8.30957 17.251H14.1338V18.751H8.72363C9.35974 19.9873 10.6479 20.8339 12.1338 20.834C13.4091 20.8338 14.5384 20.2093 15.2354 19.251C15.198 19.4031 15.1644 19.5445 15.1338 19.667L16.0674 20.5996C15.0922 21.6645 13.6913 22.3338 12.1338 22.334L11.8594 22.3271C9.64739 22.2149 7.79074 20.754 7.09473 18.751H6.13379V17.251H6.80664C6.80408 17.1957 6.80359 17.1397 6.80273 17.084H6.13379V15.584H6.99219C7.61273 13.3262 9.67896 11.6671 12.1338 11.667Z" fill="#9FE870"/>
<path d="M41.7422 5.86523V10.2949H38.3242V28H32.5684V10.2949H29.1641V5.86523H41.7422ZM43.3347 5.86523H47.4089C50.1251 5.86523 51.9616 5.97005 52.9187 6.17969C53.8848 6.38932 54.6687 6.92708 55.2702 7.79297C55.8809 8.64974 56.1862 10.0215 56.1862 11.9082C56.1862 13.6309 55.9721 14.7884 55.5437 15.3809C55.1153 15.9733 54.2722 16.3288 53.0144 16.4473C54.1537 16.7298 54.9193 17.1081 55.3112 17.582C55.7032 18.056 55.9447 18.4935 56.0359 18.8945C56.1361 19.2865 56.1862 20.3757 56.1862 22.1621V28H50.8405V20.6445C50.8405 19.4596 50.7448 18.7259 50.5534 18.4434C50.3711 18.1608 49.8835 18.0195 49.0905 18.0195V28H43.3347V5.86523ZM49.0905 9.65234V14.5742C49.7377 14.5742 50.1889 14.4876 50.4441 14.3145C50.7084 14.1322 50.8405 13.5534 50.8405 12.5781V11.3613C50.8405 10.6595 50.7129 10.1992 50.4577 9.98047C50.2116 9.76172 49.7559 9.65234 49.0905 9.65234ZM64.4643 5.86523V28H58.7084V5.86523H64.4643ZM67.0548 5.86523H72.8517C74.4194 5.86523 75.6226 5.98828 76.4611 6.23438C77.3088 6.48047 77.9422 6.83594 78.3615 7.30078C78.7899 7.76562 79.077 8.33073 79.2228 8.99609C79.3778 9.65234 79.4552 10.6732 79.4552 12.0586V13.9863C79.4552 15.3991 79.3094 16.429 79.0177 17.0762C78.7261 17.7233 78.1883 18.2201 77.4045 18.5664C76.6297 18.9128 75.6134 19.0859 74.3556 19.0859H72.8107V28H67.0548V5.86523ZM72.8107 9.65234V15.2852C72.9748 15.2943 73.116 15.2988 73.2345 15.2988C73.7632 15.2988 74.1278 15.1712 74.3283 14.916C74.5379 14.6517 74.6427 14.1094 74.6427 13.2891V11.4707C74.6427 10.7142 74.5242 10.222 74.2873 9.99414C74.0503 9.76628 73.5581 9.65234 72.8107 9.65234ZM87.1454 5.86523V23.5703H90.6454V28H81.3895V5.86523H87.1454ZM104.597 5.86523L100.4 19.9883V28H95.068V19.9883L91.0211 5.86523H96.3121C97.1415 10.1764 97.6064 13.0794 97.7066 14.5742C98.0257 12.2135 98.5589 9.31055 99.3063 5.86523H104.597Z" fill="#163300"/>
</svg>
