<svg width="24" height="24" viewBox="0 0 24 24" fill="none" xmlns="http://www.w3.org/2000/svg">
<path d="M11.9999 1.713C6.34287 1.713 1.71387 6.341 1.71387 11.999C1.71387 17.656 6.34287 22.284 11.9999 22.284C17.6569 22.284 22.2859 17.656 22.2859 12C22.2859 6.34 17.6569 1.713 11.9999 1.713ZM12.8569 3.47C14.5719 3.641 16.1569 4.327 17.3999 5.356L12.8569 9.94V3.47ZM11.1429 3.47V11.142H3.46987C3.85587 7.112 7.11387 3.856 11.1429 3.47ZM11.9999 20.57C9.87446 20.5718 7.82431 19.7832 6.24799 18.3575C4.67167 16.9318 3.68182 14.9709 3.47087 12.856H12.0009C12.1129 12.855 12.2237 12.8318 12.3267 12.7877C12.4297 12.7436 12.5229 12.6794 12.6009 12.599L18.6429 6.556C19.8877 8.09725 20.568 10.0178 20.5709 11.999C20.5709 16.713 16.7139 20.57 12.0009 20.57H11.9999Z" fill="black"/>
</svg>
