<svg width="131" height="131" viewBox="0 0 131 131" fill="none" xmlns="http://www.w3.org/2000/svg">
<g clip-path="url(#clip0_25_724)">
<mask id="mask0_25_724" style="mask-type:luminance" maskUnits="userSpaceOnUse" x="0" y="0" width="131" height="131">
<path d="M131 0H0V131H131V0Z" fill="white"/>
</mask>
<g mask="url(#mask0_25_724)">
<path d="M65.5 131C101.675 131 131 101.675 131 65.5C131 29.3254 101.675 0 65.5 0C29.3254 0 0 29.3254 0 65.5C0 101.675 29.3254 131 65.5 131Z" fill="white"/>
<path d="M0 65.5008C0 89.7904 13.2365 110.941 32.75 122.268V8.73413C13.2365 20.0602 0 41.2113 0 65.5008Z" fill="#F0263C"/>
<path d="M98.25 8.73413V122.131C117.763 110.941 131 89.7904 131 65.5008C131 41.2113 117.763 20.0602 98.25 8.73413Z" fill="#F0263C"/>
<path d="M95.5201 65.5004L90.0619 62.7711L92.791 54.5836L84.6035 57.3129L81.8744 51.8545L73.6869 60.042L76.416 43.667L71.0941 46.3961L65.4994 35.4795L59.9045 46.3961L54.5826 43.667L57.3119 60.042L49.1244 51.8545L46.3951 57.3129L38.2076 54.5836L40.9369 62.7711L35.4785 65.5004L51.8535 79.1461L49.1244 84.6045L62.7701 81.8754V95.5211H68.2285V81.8754L81.8744 84.6045L79.1451 79.1461L95.5201 65.5004Z" fill="#F0263C"/>
</g>
</g>
<defs>
<clipPath id="clip0_25_724">
<rect width="131" height="131" rx="65.5" fill="white"/>
</clipPath>
</defs>
</svg>
