<svg width="131" height="131" viewBox="0 0 131 131" fill="none" xmlns="http://www.w3.org/2000/svg">
<g clip-path="url(#clip0_25_740)">
<mask id="mask0_25_740" style="mask-type:luminance" maskUnits="userSpaceOnUse" x="0" y="0" width="131" height="131">
<path d="M131 0H0V131H131V0Z" fill="white"/>
</mask>
<g mask="url(#mask0_25_740)">
<mask id="mask1_25_740" style="mask-type:alpha" maskUnits="userSpaceOnUse" x="0" y="0" width="131" height="131">
<path d="M65.5 131C101.675 131 131 101.675 131 65.5C131 29.3254 101.675 0 65.5 0C29.3254 0 0 29.3254 0 65.5C0 101.675 29.3254 131 65.5 131Z" fill="#231D9A"/>
</mask>
<g mask="url(#mask1_25_740)">
<path d="M131 0H0V131H131V0Z" fill="#231D9A"/>
<path d="M75.9336 47.9211L75.4512 48.4036L75.9336 48.886L80.6695 53.6219L81.1519 54.1043L81.6344 53.6219L86.3702 48.886L86.8527 48.4036L86.3702 47.9211L81.6344 43.1851L81.1519 42.7026L80.6695 43.1851L75.9336 47.9211Z" fill="#F0263C" stroke="white" stroke-width="0.666667"/>
<path d="M92.3086 26.087L91.8262 26.5694L92.3086 27.0519L97.0445 31.7877L97.5269 32.2702L98.0094 31.7877L102.745 27.0519L103.228 26.5694L102.745 26.087L98.0094 21.3511L97.5269 20.8687L97.0445 21.3511L92.3086 26.087Z" fill="#F0263C" stroke="white" stroke-width="0.666667"/>
<path d="M91.0132 101.862L90.5308 102.345L91.0132 102.827L97.8639 109.678L98.3463 110.16L98.8288 109.678L105.68 102.827L106.162 102.345L105.68 101.862L98.8288 95.0115L98.3463 94.5291L97.8639 95.0115L91.0132 101.862Z" fill="#F0263C" stroke="white" stroke-width="0.666667"/>
<path d="M108.684 45.1926L108.201 45.6751L108.684 46.1575L113.419 50.8934L113.902 51.3758L114.384 50.8934L119.12 46.1575L119.603 45.6751L119.12 45.1926L114.384 40.4566L113.902 39.9741L113.419 40.4566L108.684 45.1926Z" fill="#F0263C" stroke="white" stroke-width="0.666667"/>
<mask id="mask2_25_740" style="mask-type:alpha" maskUnits="userSpaceOnUse" x="0" y="0" width="63" height="58">
<path d="M62.8391 0H0V57.3125H62.8391V0Z" fill="#D9D9D9"/>
</mask>
<g mask="url(#mask2_25_740)">
<path d="M24.1937 18.0808V17.4269L-4.57635 -1.53516C-5.89001 0.0922397 -7.49495 1.91336 -8.49951 3.69576L13.7318 18.0807L24.1937 18.0808Z" fill="#F0263C"/>
<path d="M23.5411 14.4188L-1.24116 -1.99333C-1.82964 -1.33946 -2.41811 -0.685602 -2.94121 -0.0317383L23.6064 17.4919V18.0804H14.91L-5.88359 4.34914C-6.27592 5.13379 -6.66822 5.91841 -7.06055 6.70304L10.2022 18.0804H5.5925H-0.783426C-0.979586 18.9304 -1.17574 19.7804 -1.30652 20.6959H26.1564V-6.76636C25.241 -6.6356 24.391 -6.43943 23.5409 -6.24328L23.5411 14.4188Z" fill="white"/>
<path d="M-1.30671 31.158C-1.17594 32.0733 -0.979777 32.9234 -0.783617 33.7733H10.2021L-7.32227 45.412C-6.99534 46.1966 -6.60301 46.9811 -6.14531 47.7659L14.9098 33.7733H23.5408V34.2964L-3.26831 52.0813C-2.74523 52.8006 -2.15675 53.4544 -1.56827 54.0428L23.5408 37.4349V57.4431C24.3909 57.6392 25.241 57.8353 26.1563 57.9661V35.6695V32.531V31.158H-1.30671Z" fill="white"/>
<path d="M64.0788 20.696C63.948 19.7806 63.7519 18.9306 63.5556 18.0806H52.572L67.348 8.27261C66.9556 7.48798 66.6287 6.70333 66.1711 5.9187L47.8642 18.0806H39.2332V17.5575L65.2557 0.426223C64.7325 -0.293026 64.1441 -0.946888 63.5556 -1.53537L39.2332 14.4189V-6.1124C38.3831 -6.30857 37.5332 -6.50472 36.6177 -6.6355V16.1844V19.3229V20.696H64.0788Z" fill="white"/>
<path d="M36.6179 31.158L36.6177 58.6201C37.5332 58.4893 38.3831 58.293 39.2332 58.0969V37.4349L63.0326 52.7353C63.6211 52.0813 64.2095 51.4275 64.7325 50.7736L39.2332 34.2964V33.7733H47.8642L65.5173 45.2812C65.9095 44.4966 66.3019 43.7119 66.6943 42.9273L52.572 33.7733H63.5556C63.7519 32.9234 63.948 32.0733 64.0788 31.158H36.6179Z" fill="white"/>
<path d="M66.6947 5.65656C65.8447 4.15268 64.8638 2.6488 63.8176 1.34106L39.2324 17.5569V18.08H47.8635L66.6947 5.65656Z" fill="#F0263C"/>
<path d="M-4.18408 46.4583C-3.33406 47.9622 -2.35325 49.4662 -1.30708 50.774L23.5397 34.2966V33.7734H14.9087L-4.18408 46.4583Z" fill="#F0263C"/>
<path d="M39.2324 33.7734V34.2966L63.1639 49.8584C64.2753 48.4853 65.1907 47.0468 66.0408 45.543L47.8635 33.7734H39.2324Z" fill="#F0263C"/>
<path d="M63.4245 20.6957H36.6161V19.3226V16.184V-6.11261C34.916 -6.43954 33.1506 -6.57031 31.3851 -6.57031C29.6197 -6.57031 27.8543 -6.43954 26.1543 -6.11261V20.6957H-0.654113C-0.981044 22.3956 -1.11182 24.1611 -1.11182 25.9265C-1.11182 27.6919 -0.981044 29.4573 -0.654113 31.1575H26.1543L26.1541 57.9658C27.8543 58.2274 29.6197 58.4235 31.3851 58.4235C33.1506 58.4235 34.916 58.2929 36.6161 57.9658V31.1575H63.4245C63.686 29.4573 63.8821 27.6919 63.8821 25.9265C63.8821 24.1611 63.7513 22.3956 63.4245 20.6957Z" fill="#F0263C"/>
</g>
</g>
</g>
</g>
<defs>
<clipPath id="clip0_25_740">
<rect width="131" height="131" rx="65.5" fill="white"/>
</clipPath>
</defs>
</svg>
