<svg width="131" height="131" viewBox="0 0 131 131" fill="none" xmlns="http://www.w3.org/2000/svg">
<g clip-path="url(#clip0_25_671)">
<mask id="mask0_25_671" style="mask-type:luminance" maskUnits="userSpaceOnUse" x="0" y="0" width="131" height="131">
<path d="M131 65.5C131 29.3253 101.675 0 65.5 0C29.3253 0 0 29.3253 0 65.5C0 101.675 29.3253 131 65.5 131C101.675 131 131 101.675 131 65.5Z" fill="white"/>
</mask>
<g mask="url(#mask0_25_671)">
<path d="M131 65.5C131 29.3253 101.675 0 65.5 0C29.3253 0 0 29.3253 0 65.5C0 101.675 29.3253 131 65.5 131C101.675 131 131 101.675 131 65.5Z" fill="white"/>
<mask id="mask1_25_671" style="mask-type:alpha" maskUnits="userSpaceOnUse" x="0" y="0" width="131" height="131">
<path d="M65.5 131C101.675 131 131 101.675 131 65.5C131 29.3253 101.675 0 65.5 0C29.3253 0 0 29.3253 0 65.5C0 101.675 29.3253 131 65.5 131Z" fill="white"/>
</mask>
<g mask="url(#mask1_25_671)">
<path d="M0 0H131V131H0V0Z" fill="white"/>
<path d="M65.5 0H0V70.5967H65.5V0Z" fill="#231D9A"/>
<path d="M42.3111 17.3029L47.2397 12.3743L42.3111 7.4456L37.3824 12.3743L42.3111 17.3029Z" fill="white"/>
<path d="M42.3111 37.237L47.2397 32.3083L42.3111 27.3797L37.3824 32.3084L42.3111 37.237Z" fill="white"/>
<path d="M42.3111 57.1709L47.2397 52.2422L42.3111 47.3135L37.3824 52.2422L42.3111 57.1709Z" fill="white"/>
<path d="M16.0235 17.3029L20.9521 12.3743L16.0235 7.4456L11.0948 12.3743L16.0235 17.3029Z" fill="white"/>
<path d="M16.0235 37.237L20.9521 32.3083L16.0235 27.3797L11.0948 32.3083L16.0235 37.237Z" fill="white"/>
<path d="M16.0235 57.1708L20.9521 52.2422L16.0235 47.3135L11.0948 52.2422L16.0235 57.1708Z" fill="white"/>
<path d="M55.4541 27.2695L60.3828 22.3408L55.4542 17.4122L50.5255 22.3408L55.4541 27.2695Z" fill="white"/>
<path d="M55.4541 7.33736L60.3828 2.40869L55.4541 -2.51997L50.5255 2.40869L55.4541 7.33736Z" fill="white"/>
<path d="M55.4541 47.2033L60.3828 42.2747L55.4541 37.346L50.5255 42.2747L55.4541 47.2033Z" fill="white"/>
<path d="M55.4541 67.1374L60.3828 62.2087L55.4542 57.2801L50.5255 62.2087L55.4541 67.1374Z" fill="white"/>
<path d="M29.1661 27.2695L34.0947 22.3408L29.1661 17.4122L24.2374 22.3408L29.1661 27.2695Z" fill="white"/>
<path d="M29.1661 47.2033L34.0947 42.2747L29.1661 37.346L24.2374 42.2747L29.1661 47.2033Z" fill="white"/>
<path d="M29.1661 67.1374L34.0947 62.2087L29.1661 57.2801L24.2374 62.2087L29.1661 67.1374Z" fill="white"/>
<path d="M2.88091 27.2695L7.80957 22.3408L2.88091 17.4122L-2.04776 22.3408L2.88091 27.2695Z" fill="white"/>
<path d="M2.88091 47.2033L7.80957 42.2747L2.88091 37.346L-2.04776 42.2747L2.88091 47.2033Z" fill="white"/>
<path d="M2.88091 67.1374L7.80957 62.2087L2.88091 57.2801L-2.04776 62.2087L2.88091 67.1374Z" fill="white"/>
<path d="M162.212 -0.671631H65.5V9.50858H162.212V-0.671631Z" fill="#F0263C"/>
<path d="M136.762 19.6892H65.5V29.8694H136.762V19.6892Z" fill="#F0263C"/>
<path d="M136.762 40.0488H65.5V50.229H136.762V40.0488Z" fill="#F0263C"/>
<path d="M162.212 60.4099H65.5V70.5901H162.212V60.4099Z" fill="#F0263C"/>
<path d="M161.704 80.7705H1.36523V90.9507H161.704V80.7705Z" fill="#F0263C"/>
<path d="M161.704 101.13H1.36523V111.311H161.704V101.13Z" fill="#F0263C"/>
<path d="M161.704 121.491H1.36523V131.671H161.704V121.491Z" fill="#F0263C"/>
</g>
</g>
</g>
<defs>
<clipPath id="clip0_25_671">
<rect width="131" height="131" rx="65.5" fill="white"/>
</clipPath>
</defs>
</svg>
