<svg width="131" height="131" viewBox="0 0 131 131" fill="none" xmlns="http://www.w3.org/2000/svg">
<g clip-path="url(#clip0_25_706)">
<mask id="mask0_25_706" style="mask-type:luminance" maskUnits="userSpaceOnUse" x="0" y="0" width="131" height="131">
<path d="M131 0H0V131H131V0Z" fill="white"/>
</mask>
<g mask="url(#mask0_25_706)">
<path d="M65.5 131C101.675 131 131 101.675 131 65.5C131 29.3254 101.675 0 65.5 0C29.3254 0 0 29.3254 0 65.5C0 101.675 29.3254 131 65.5 131Z" fill="#231D9A"/>
<path d="M72.0114 22.8892L65.498 16.376L58.9849 22.8892L65.498 29.4023L72.0114 22.8892Z" fill="#FFD400"/>
<path d="M50.289 27.7795L43.7758 21.2661L37.2627 27.7795L43.7758 34.2926L50.289 27.7795Z" fill="#FFD400"/>
<path d="M34.29 43.7781L27.7768 37.2649L21.2637 43.7781L27.7768 50.2914L34.29 43.7781Z" fill="#FFD400"/>
<path d="M29.4048 65.5002L22.8916 58.9871L16.3784 65.5002L22.8916 72.0136L29.4048 65.5002Z" fill="#FFD400"/>
<path d="M34.338 87.3022L27.8249 80.7891L21.3115 87.3022L27.8249 93.8154L34.338 87.3022Z" fill="#FFD400"/>
<path d="M50.2194 103.17L43.706 96.6562L37.1929 103.17L43.706 109.683L50.2194 103.17Z" fill="#FFD400"/>
<path d="M87.5148 109.683L81.0015 103.17L87.5148 96.6565L94.028 103.17L87.5148 109.683Z" fill="#FFD400"/>
<path d="M72.0114 108.112L65.498 101.599L58.9849 108.112L65.498 114.625L72.0114 108.112Z" fill="#FFD400"/>
<path d="M109.72 87.2253L103.207 80.7122L96.6938 87.2253L103.207 93.7385L109.72 87.2253Z" fill="#FFD400"/>
<path d="M114.624 65.5002L108.111 58.9871L101.598 65.5002L108.111 72.0136L114.624 65.5002Z" fill="#FFD400"/>
<path d="M109.685 43.7102L103.171 37.197L96.6582 43.7102L103.171 50.2235L109.685 43.7102Z" fill="#FFD400"/>
<path d="M93.8193 27.8254L87.3061 21.3123L80.793 27.8254L87.3061 34.3388L93.8193 27.8254Z" fill="#FFD400"/>
</g>
</g>
<defs>
<clipPath id="clip0_25_706">
<rect width="131" height="131" rx="65.5" fill="white"/>
</clipPath>
</defs>
</svg>
