<svg width="131" height="131" viewBox="0 0 131 131" fill="none" xmlns="http://www.w3.org/2000/svg">
<g clip-path="url(#clip0_25_767)">
<mask id="mask0_25_767" style="mask-type:luminance" maskUnits="userSpaceOnUse" x="0" y="0" width="131" height="131">
<path d="M131 0H0V131H131V0Z" fill="white"/>
</mask>
<g mask="url(#mask0_25_767)">
<path d="M0 65.5004C0 73.142 1.36458 80.5107 3.68437 87.3336H127.179C129.635 80.5107 131 73.142 131 65.5004C131 57.8586 129.635 50.4898 127.316 43.667H3.68437C1.36458 50.4898 0 57.8586 0 65.5004Z" fill="#231D9A"/>
<path d="M3.68604 43.6664H127.181C124.315 35.4789 119.812 28.1102 114.217 21.833H16.6496C11.0548 28.1102 6.68813 35.4789 3.68604 43.6664Z" fill="white"/>
<path d="M16.6496 109.166H114.217C119.812 102.889 124.315 95.5205 127.181 87.333H3.68604C6.68813 95.5205 11.0548 102.889 16.6496 109.166Z" fill="white"/>
<path d="M16.6489 21.8334H114.217C102.345 8.46041 84.878 0 65.5011 0C46.1239 0 28.6573 8.46041 16.6489 21.8334Z" fill="#960A3C"/>
<path d="M114.353 109.167H16.6489C28.6573 122.54 46.1239 131 65.5011 131C84.878 131 102.345 122.54 114.353 109.167Z" fill="#960A3C"/>
</g>
</g>
<defs>
<clipPath id="clip0_25_767">
<rect width="131" height="131" rx="65.5" fill="white"/>
</clipPath>
</defs>
</svg>
