<svg width="131" height="131" viewBox="0 0 131 131" fill="none" xmlns="http://www.w3.org/2000/svg">
<g clip-path="url(#clip0_25_656)">
<mask id="mask0_25_656" style="mask-type:alpha" maskUnits="userSpaceOnUse" x="0" y="0" width="131" height="131">
<path d="M65.5 131C101.675 131 131 101.675 131 65.5C131 29.3254 101.675 0 65.5 0C29.3254 0 0 29.3254 0 65.5C0 101.675 29.3254 131 65.5 131Z" fill="#231D9A"/>
</mask>
<g mask="url(#mask0_25_656)">
<path d="M131 0H0V131H131V0Z" fill="#231D9A"/>
<path d="M55.2656 55.2656V-2.04688H49.125V41.9609L5.11719 12.2812L-8.1875 29.6797L21.4922 49.125H-5.11719V55.2656H55.2656Z" fill="white"/>
<path d="M55.2656 75.7344V133.047H49.125V89.0391L5.11719 118.719L-8.1875 101.32L21.4922 81.875H-5.11719V75.7344H55.2656Z" fill="white"/>
<path d="M75.7344 55.2656V-2.04688H81.875V41.9609L125.883 12.2812L139.188 29.6797L109.508 49.125H136.117V55.2656H75.7344Z" fill="white"/>
<path d="M75.7344 75.7344V133.047H81.875V89.0391L125.883 118.719L139.188 101.32L109.508 81.875H136.117V75.7344H75.7344Z" fill="white"/>
<path d="M49.125 49.125V48.1016L6.14062 19.4453L-1.02344 27.6328L30.7031 49.125H49.125Z" fill="#F0263C"/>
<path d="M49.125 81.875V82.8984L6.14062 111.555L-1.02344 103.367L30.7031 81.875H49.125Z" fill="#F0263C"/>
<path d="M81.875 49.125V48.1016L124.859 19.4453L132.023 27.6328L100.297 49.125H81.875Z" fill="#F0263C"/>
<path d="M81.875 81.875V82.8984L124.859 111.555L132.023 103.367L100.297 81.875H81.875Z" fill="#F0263C"/>
<path fill-rule="evenodd" clip-rule="evenodd" d="M75.7344 55.2656V-4.09375H55.2656V55.2656H-4.09375V75.7344H55.2656V135.094H75.7344V75.7344H135.094V55.2656H75.7344Z" fill="#F0263C"/>
</g>
</g>
<defs>
<clipPath id="clip0_25_656">
<rect width="131" height="131" rx="65.5" fill="white"/>
</clipPath>
</defs>
</svg>
